<svg version="1.2" xmlns="http://www.w3.org/2000/svg" viewBox="0 0 960 960" width="960" height="960">
	<title>menu_FILL0_wght400_GRAD0_opsz24-svg</title>
	<style>
		.s0 { fill: #017d2d } 
	</style>
	<path id="Layer" class="s0" d="m125 315c-5-5.9-5-15-5-15v-40c0 0 0.5-10 5-15 4.5-5 15-5 15-5h680c0 0 10-0.6 15 5 5 5.6 5 15 5 15v40c0 0 0.1 10-5 15-5.1 5-15 5-15 5h-678c0 0-12 0.9-17-5z"/>
	<path id="Layer copy" class="s0" d="m130 515c-5-5.9-5-15-5-15v-40c0 0 0.5-10 5-15 4.5-5 15-5 15-5h680c0 0 10-0.6 15 5 5 5.6 5 15 5 15v40c0 0 0.1 10-5 15-5.1 5-15 5-15 5h-678c0 0-12 0.9-17-5z"/>
	<path id="Layer copy 2" class="s0" d="m125 715c-5-5.9-5-15-5-15v-40c0 0 0.5-10 5-15 4.5-5 15-5 15-5h680c0 0 10-0.6 15 5 5 5.6 5 15 5 15v40c0 0 0.1 10-5 15-5.1 5-15 5-15 5h-678c0 0-12 0.9-17-5z"/>
</svg>